HIERARCHY
ROOT Hips
{
	OFFSET -0.179506 -22.333345 2.821913
	CHANNELS 6 Xposition Yposition Zposition Zrotation Yrotation Xrotation 
	JOINT LeftUpLeg
	{
		OFFSET 6.951974 -9.140623 -0.681533
		CHANNELS 3 Zrotation Yrotation Xrotation
		JOINT LeftLeg
		{
			OFFSET 3.427654 -37.519855 -0.449580
			CHANNELS 3 Zrotation Yrotation Xrotation
			JOINT LeftFoot
			{
				OFFSET -1.359570 -39.796059 -4.369333
				CHANNELS 3 Zrotation Yrotation Xrotation
				JOINT LeftToe
				{
					OFFSET 2.635814 -5.579078 11.928840
					CHANNELS 3 Zrotation Yrotation Xrotation
					End Site
					{
						OFFSET 0.000000 0.000000 0.000000
					}
				}
			}
		}
	}
	JOINT RightUpLeg
	{
		OFFSET -6.767048 -9.052170 -0.431982
		CHANNELS 3 Zrotation Yrotation Xrotation
		JOINT RightLeg
		{
			OFFSET -3.829005 -38.256897 -0.885003
			CHANNELS 3 Zrotation Yrotation Xrotation
			JOINT RightFoot
			{
				OFFSET 1.577377 -39.841461 -4.231180
				CHANNELS 3 Zrotation Yrotation Xrotation
				JOINT RightToe
				{
					OFFSET -2.537174 -4.814398 12.334795
					CHANNELS 3 Zrotation Yrotation Xrotation
					End Site
					{
						OFFSET 0.000000 0.000000 0.000000
					}
				}
			}
		}
	}
	JOINT Spine
	{
		OFFSET -0.253288 10.896323 -2.669631
		CHANNELS 3 Zrotation Yrotation Xrotation
		JOINT Spine1
		{
			OFFSET 0.548704 13.518043 0.109247
			CHANNELS 3 Zrotation Yrotation Xrotation
			JOINT Spine2
			{
				OFFSET 0.145701 5.292222 2.542457
				CHANNELS 3 Zrotation Yrotation Xrotation
				JOINT Neck
				{
					OFFSET -0.277840 21.387037 -4.285703
					CHANNELS 3 Zrotation Yrotation Xrotation
					JOINT Head
					{
						OFFSET 0.515184 6.496960 5.134897
						CHANNELS 3 Zrotation Yrotation Xrotation
						End Site
						{
							OFFSET 0.000000 0.000000 0.000000
						}
					}
				}
				JOINT LeftShoulder
				{
					OFFSET 7.884473 12.174932 -3.408961
					CHANNELS 3 Zrotation Yrotation Xrotation
					JOINT LeftArm
					{
						OFFSET 9.097692 3.046888 -0.886815
						CHANNELS 3 Zrotation Yrotation Xrotation
						JOINT LeftForeArm
						{
							OFFSET 25.961220 -1.277207 -2.745643
							CHANNELS 3 Zrotation Yrotation Xrotation
							JOINT LeftHand
							{
								OFFSET 24.923361 0.898606 -0.117091
								CHANNELS 3 Zrotation Yrotation Xrotation
								End Site
								{
									OFFSET 0.000000 0.000000 0.000000
								}
							}
						}
					}
				}
				JOINT RightShoulder
				{
					OFFSET -8.175920 11.883285 -3.861528
					CHANNELS 3 Zrotation Yrotation Xrotation
					JOINT RightArm
					{
						OFFSET -9.601238 3.255117 -0.914307
						CHANNELS 3 Zrotation Yrotation Xrotation
						JOINT RightForeArm
						{
							OFFSET -25.374195 -1.332924 -2.140099
							CHANNELS 3 Zrotation Yrotation Xrotation
							JOINT RightHand
							{
								OFFSET -25.529810 0.777228 -0.555919
								CHANNELS 3 Zrotation Yrotation Xrotation
								End Site
								{
									OFFSET 0.000000 0.000000 0.000000
								}
							}
						}
					}
				}
			}
		}
	}
}
MOTION
Frames: 18
Frame Time: 0.033333
-20.445606 -14.442587 94.705994 -178.687038 1.966965 85.606914 0.849403 1.404264 -22.208449 1.255320 11.047285 10.011925 -4.401330 8.521896 2.983931 nan nan nan 1.807427 -5.621688 16.229197 0.576170 1.882259 -6.547680 8.475773 -1.447737 -1.793453 nan nan nan 4.385719 10.034309 8.940324 0.448504 0.064901 3.713556 -1.305979 3.498093 1.284099 0.039304 -3.487471 4.988211 1.320209 -9.265535 -7.445567 -13.986091 14.318621 -1.262481 -72.060146 7.673989 13.529289 7.848442 -24.513348 -7.125305 -19.967598 -17.126992 -12.024458 15.302331 1.154447 -0.773600 53.743943 19.839188 11.090503 -7.665484 35.079555 -9.522387 12.157344 14.135182 -8.012183 
-20.592525 -13.766768 94.531631 -178.600303 1.980372 85.578852 0.556391 1.836526 -22.117654 1.220515 12.571453 8.672916 -4.608601 8.543764 3.234820 nan nan nan 1.676338 -5.837812 16.789186 0.574647 1.697929 -6.563796 8.824282 -1.134376 -2.143689 nan nan nan 4.428187 10.109738 8.929848 0.404040 0.052510 3.625798 -1.264226 3.569486 1.308657 0.005763 -3.349142 5.091124 1.144334 -9.255485 -7.405704 -13.813572 14.531334 -1.311111 -72.445102 7.610152 13.070299 7.937578 -24.089675 -7.770891 -21.005973 -17.118780 -10.892915 15.466666 1.158394 -0.636517 53.452025 20.618489 10.737697 -7.712837 34.782151 -9.607974 14.261069 14.268273 -5.692378 
-20.742960 -13.088263 94.368484 -178.495250 2.026094 85.587935 0.166151 2.224612 -22.065461 1.335326 14.055517 7.463501 -4.543959 8.773001 3.653716 nan nan nan 1.577047 -5.939824 17.276472 0.636497 1.707794 -6.514900 9.210529 -1.015043 -2.427054 nan nan nan 4.568819 10.191231 8.735413 0.345460 0.012277 3.862140 -1.338613 3.595309 1.210789 0.104667 -3.321199 5.079100 0.839561 -9.081183 -7.256227 -13.767878 14.641315 -1.455193 -72.659129 7.807695 12.974420 8.194005 -24.037193 -8.313018 -20.711620 -17.200244 -10.818616 15.302002 1.093973 -0.860901 53.682383 20.920888 11.329459 -7.731256 34.676531 -9.750657 14.037335 14.434265 -5.570596 
-20.913490 -12.398831 94.214363 -178.411713 2.122350 85.643677 -0.333593 2.726334 -22.008175 1.580472 15.294803 6.297830 -4.662104 9.020626 3.970377 nan nan nan 1.534778 -5.914699 17.671087 0.625773 1.748285 -6.388357 9.606301 -0.953583 -2.809616 nan nan nan 4.793889 10.236119 8.418433 0.292131 0.035140 4.098471 -1.442529 3.681129 1.214429 0.092150 -3.175918 5.203968 0.663175 -9.094348 -7.350441 -13.810512 14.762832 -1.861754 -72.575605 8.298137 13.444797 8.057504 -24.245045 -8.075037 -19.099726 -17.590135 -11.725106 15.138287 1.197828 -1.176146 53.915638 20.684638 12.338719 -7.716440 35.008185 -10.261789 11.368484 15.182115 -8.199950 
-21.093863 -11.708035 94.058319 -178.409513 2.232599 85.657638 -0.774621 3.169170 -21.933550 1.805502 16.387401 5.396803 -4.844497 9.216564 4.084969 nan nan nan 1.490270 -5.973922 18.031849 0.582582 1.660825 -6.139894 9.876716 -0.745290 -3.288907 nan nan nan 5.065645 10.238079 8.338587 0.204535 0.066241 4.068574 -1.574505 3.847596 1.198746 0.169653 -2.877726 5.332417 0.462344 -9.182915 -7.327411 -13.817918 15.153332 -2.184466 -72.664613 8.408438 13.450701 8.144302 -23.937575 -8.255610 -19.693117 -17.615021 -11.146704 15.321398 1.224510 -1.090560 53.968332 20.896671 12.536481 -8.312759 35.003093 -10.672415 11.953307 15.274329 -7.698290 
-21.270805 -11.012978 93.912354 -178.484121 2.334727 85.732827 -1.193151 3.592778 -21.944848 2.061497 17.348557 4.739653 -4.862526 9.469528 4.192221 nan nan nan 1.461847 -5.986634 18.261075 0.520750 1.646253 -5.776333 10.084914 -0.531364 -3.697201 nan nan nan 5.229411 10.298551 8.225357 0.193734 0.139980 4.073207 -1.679636 3.949860 1.048544 0.149359 -2.883782 5.375414 0.270058 -8.967614 -7.182414 -14.030585 15.562303 -2.242663 -72.626815 8.301317 13.288138 8.391455 -23.675562 -8.624250 -21.101733 -17.114677 -10.685262 15.514422 0.849406 -0.994534 54.149763 21.507374 12.649443 -8.583402 34.851716 -10.703968 13.330963 14.849684 -6.360833 
-21.433193 -10.298311 93.776878 -178.534741 2.435634 85.835878 -1.480596 3.924705 -21.945863 2.138949 18.109407 4.243426 -4.689786 9.817574 4.288204 nan nan nan 1.409400 -5.948724 18.488786 0.541027 1.754116 -5.416543 10.245877 -0.441717 -4.063977 nan nan nan 5.296586 10.415428 7.891913 0.238953 0.207646 4.313610 -1.758593 3.955427 0.901496 0.137279 -3.022138 5.357164 0.124197 -8.650561 -7.132450 -14.276424 15.832811 -2.284455 -72.425062 8.468491 13.469017 8.482117 -23.982197 -8.536860 -20.782644 -16.844799 -11.462270 15.520419 0.477846 -1.135614 54.570516 21.848497 13.218295 -8.254594 34.972076 -10.946854 11.901347 14.940082 -7.729501 
-21.610962 -9.579194 93.633926 -178.515576 2.559849 85.843244 -1.705192 4.167027 -21.875137 2.190265 18.844678 4.028640 -4.647921 10.086152 4.353731 nan nan nan 1.406540 -5.898585 18.843913 0.540982 1.755348 -5.097452 10.222661 -0.386770 -4.522999 nan nan nan 5.340280 10.500451 7.656015 0.271753 0.275820 4.404470 -1.746449 4.049343 0.854762 0.293720 -2.939619 5.401809 -0.139364 -8.596259 -7.008295 -14.271242 15.911175 -2.337377 -72.632984 8.650504 13.457911 8.888911 -23.958004 -8.589810 -20.787360 -16.865597 -11.710217 15.502399 0.653790 -1.252746 54.822339 21.488900 13.753350 -8.789107 35.114707 -11.298465 11.739538 15.006688 -8.580173 
-21.803043 -8.845539 93.500206 -178.476211 2.667988 85.779400 -1.965162 4.396205 -21.742478 2.320367 19.566683 4.046654 -4.737599 10.259628 4.225292 nan nan nan 1.373220 -5.888134 19.273837 0.524719 1.686887 -4.770170 10.063916 -0.268621 -5.052546 nan nan nan 5.393757 10.560379 7.441223 0.307345 0.301001 4.640654 -1.729902 4.145031 0.666839 0.513747 -2.689700 5.619522 -0.486253 -8.572028 -6.964968 -14.318414 15.966277 -2.335362 -72.855975 8.751979 13.442308 9.293935 -23.749690 -8.934218 -20.919956 -17.018472 -11.862717 15.461751 1.071251 -1.176699 55.115650 21.070539 14.358069 -9.781840 35.150512 -12.051186 11.705232 15.108427 -9.441372 
-21.994097 -8.089367 93.383774 -178.344313 2.751719 85.760599 -2.207906 4.477124 -21.603347 2.453672 20.007580 4.177922 -4.669227 10.390229 4.187724 nan nan nan 1.313198 -5.940669 19.723764 0.511412 1.666687 -4.547991 9.984529 -0.219632 -5.395676 nan nan nan 5.367175 10.649630 7.128683 0.380003 0.280270 4.875144 -1.733781 4.185343 0.537868 0.602686 -2.515250 5.819267 -0.572183 -8.534430 -6.981173 -14.424460 16.200767 -2.339813 -72.844288 8.697697 13.447190 9.373536 -23.637480 -9.091545 -20.524903 -17.198956 -12.130415 15.592560 1.099771 -1.117049 55.446781 20.961245 14.728069 -10.356189 35.211670 -12.711607 10.993126 15.433986 -10.061308 
-22.172026 -7.330201 93.265182 -178.172685 2.786979 85.858257 -2.399753 4.389329 -21.564774 2.520582 20.363969 4.452180 -4.351109 10.462541 4.592885 nan nan nan 1.248086 -5.968728 19.972045 0.519407 1.592498 -4.180207 9.971658 -0.139416 -5.742053 nan nan nan 5.225081 10.660838 6.732583 0.409604 0.246103 5.089357 -1.721095 4.213533 0.331671 0.616992 -2.278759 6.134461 -0.516518 -8.402638 -7.134416 -14.388494 16.507594 -2.417987 -72.919249 8.746886 13.185173 9.561924 -23.618628 -9.357022 -20.828894 -16.974240 -11.534963 15.605058 1.035715 -0.973663 55.952994 21.075655 14.855082 -10.404816 35.086448 -13.195976 11.502349 15.565970 -10.169887 
-22.357733 -6.581930 93.138466 -178.017560 2.767963 85.963045 -2.568466 4.182853 -21.580869 2.602716 20.623856 5.009118 -3.753970 10.403449 5.081760 nan nan nan 1.073924 -6.004781 20.168762 0.618675 1.500906 -3.722737 9.998816 -0.032717 -5.974160 nan nan nan 4.998599 10.717634 6.283997 0.522677 0.206689 5.254683 -1.711190 4.209177 0.256863 0.487925 -2.110692 6.459059 -0.485108 -8.103253 -7.307055 -14.153063 16.911874 -2.369059 -73.211145 8.595896 12.895418 9.674404 -23.569368 -9.559200 -21.442676 -16.596945 -10.817635 15.874640 0.423858 -1.003481 56.340004 21.627287 14.922909 -10.172826 34.797418 -12.904701 13.008986 15.119214 -9.455991 
-22.542690 -5.812828 93.037552 -177.963199 2.779417 85.989054 -2.662483 4.090548 -21.535496 2.669880 20.567214 5.727405 -3.257728 10.410194 5.248501 nan nan nan 0.873764 -5.981926 20.446463 0.768005 1.450786 -3.295576 10.272434 0.037292 -6.079559 nan nan nan 4.792988 10.876280 5.876688 0.642320 0.239684 5.571814 -1.692211 4.281721 0.051373 0.603341 -1.932432 6.657128 -0.549995 -7.972579 -7.307328 -13.862741 16.996426 -2.179646 -73.504023 8.523744 12.933759 9.686253 -23.531967 -9.407238 -20.822578 -16.798492 -11.401143 15.792073 0.395286 -0.951123 56.958646 21.386963 15.167300 -10.656837 34.672712 -13.553677 11.630081 15.588609 -10.176627 
-22.731003 -5.019441 92.954918 -177.936137 2.794405 86.019713 -2.697809 4.024243 -21.485963 2.623448 20.528711 6.413587 -2.927642 10.467643 5.574252 nan nan nan 0.683496 -5.955579 20.730468 0.811233 1.452082 -2.907342 10.600366 0.136477 -6.030939 nan nan nan 4.601862 10.970691 5.438911 0.737933 0.233184 5.943230 -1.704611 4.366245 -0.234588 0.781215 -1.680438 6.957168 -0.616928 -7.868698 -7.367715 -13.701189 17.097504 -1.988550 -73.600127 8.551054 12.952956 9.673168 -23.704434 -9.395717 -19.917379 -17.067032 -12.040736 15.812497 0.567023 -0.641854 57.438920 21.192526 15.318745 -11.153012 34.503607 -14.365779 10.054193 16.142428 -10.737695 
-22.904430 -4.209029 92.874794 -177.867335 2.788814 86.031251 -2.723837 3.973453 -21.385337 2.542615 20.550065 6.903754 -2.547727 10.442012 6.063387 nan nan nan 0.485347 -5.963853 20.966525 0.843158 1.304797 -2.381832 11.034508 0.272472 -5.944854 nan nan nan 4.362087 11.005010 5.055553 0.804730 0.272508 6.077998 -1.681780 4.382366 -0.341008 0.953853 -1.406729 7.311153 -0.692173 -7.842222 -7.409414 -13.546757 17.364621 -1.978817 -73.829677 8.475367 12.821775 9.941145 -23.459476 -9.850005 -19.837105 -17.285198 -12.056855 16.044462 0.589329 -0.391563 57.893853 21.265366 15.361436 -11.531315 34.020824 -14.801441 10.123177 16.100087 -10.241865 
-23.061989 -3.393829 92.817902 -177.786424 2.773824 86.081284 -2.736391 3.866054 -21.314853 2.428358 20.514734 7.280698 -2.127403 10.346363 6.335128 nan nan nan 0.349803 -5.963934 21.103906 0.792977 1.173121 -1.785365 11.455549 0.310055 -5.885360 nan nan nan 4.047357 11.129436 4.600414 0.911396 0.346343 6.240660 -1.638114 4.372059 -0.423386 1.133012 -1.163387 7.557603 -0.656884 -7.851122 -7.403773 -13.441237 17.522336 -2.021389 -73.826439 8.429134 13.012309 9.776060 -23.282045 -9.853227 -19.057041 -17.755870 -12.371715 16.318316 0.458393 -0.398174 58.413556 21.120563 15.602356 -11.807961 33.572804 -15.162188 9.267630 16.141922 -10.494603 
-23.270735 -2.583166 92.776161 -177.605973 2.762037 86.243795 -2.796861 3.529596 -21.433515 2.315608 20.378312 7.776182 -1.487199 10.369920 6.406374 nan nan nan 0.181446 -5.967583 21.082166 0.829861 1.126121 -1.094479 11.740537 0.328960 -5.868941 nan nan nan 3.752868 11.216687 4.046081 1.007378 0.277674 6.400412 -1.584986 4.384781 -0.521769 1.173720 -0.946740 7.634481 -0.618557 -7.617363 -7.225199 -13.469928 17.561423 -1.869276 -73.748287 8.371104 12.905389 9.691884 -23.350926 -9.805071 -18.604226 -17.873790 -12.296844 16.501186 0.366502 -0.230085 58.892005 20.938572 15.727044 -12.062798 33.395496 -15.264241 8.777165 16.319820 -10.723896 
-23.509478 -1.750481 92.754448 -177.374743 2.724939 86.365666 -2.911036 3.138130 -21.462570 2.139828 20.032952 8.276976 -0.566352 10.529144 6.503091 nan nan nan -0.136929 -5.985961 21.071859 1.063774 1.096058 -0.246071 12.356574 0.346260 -5.743549 nan nan nan 3.490513 11.268960 3.479073 1.066395 0.147286 6.594572 -1.568581 4.365519 -0.592555 1.080103 -0.785543 7.829932 -0.506155 -7.247452 -7.194260 -13.503796 17.524752 -1.677971 -73.730162 8.273733 12.389619 9.877028 -23.504723 -10.324515 -18.808437 -17.607806 -12.161593 16.653576 0.431317 0.011039 59.286017 20.731369 15.670374 -12.198149 33.191124 -15.096858 9.402012 16.149837 -10.251491 
